<svg xmlns="http://www.w3.org/2000/svg" width="477" height="317" viewBox="0 0 477 317" fill="none"><path d="M182.281 268.996H270.55L278.164 310.743H174.279L182.281 268.996Z" fill="#EDF2F6"></path><path d="M272.072 277.346L270.55 268.996H182.281L180.666 277.427L272.072 277.346Z" fill="#A9A8A8"></path><path d="M272.086 277.42L270.559 269.057L182.272 269.061L180.652 277.505L272.086 277.42Z" fill="#AAA9A9"></path><path d="M272.098 277.497L270.568 269.115L182.258 269.124L180.638 277.59L272.098 277.497Z" fill="#ABAAAA"></path><path d="M272.112 277.568L270.581 269.178L182.245 269.191L180.621 277.671L272.112 277.568Z" fill="#ACABAB"></path><path d="M272.125 277.642L270.594 269.238L182.231 269.252L180.607 277.754L272.125 277.642Z" fill="#ADACAC"></path><path d="M272.139 277.72L270.603 269.299L182.223 269.317L180.594 277.837L272.139 277.72Z" fill="#AEADAD"></path><path d="M272.152 277.79L270.613 269.359L182.21 269.382L180.576 277.919L272.152 277.79Z" fill="#AFAEAE"></path><path d="M272.165 277.868L270.626 269.42L182.196 269.447L180.562 278.002L272.165 277.868Z" fill="#B0AFAF"></path><path d="M272.179 277.94L270.635 269.482L182.187 269.509L180.545 278.083L272.179 277.94Z" fill="#B1B0B0"></path><path d="M272.192 278.014L270.648 269.539L182.174 269.575L180.531 278.166L272.192 278.014Z" fill="#B2B1B1"></path><path d="M272.206 278.09L270.657 269.602L182.16 269.637L180.518 278.246L272.206 278.09Z" fill="#B3B2B2"></path><path d="M272.219 278.16L270.67 269.658L182.147 269.698L180.5 278.33L272.219 278.16Z" fill="#B4B3B3"></path><path d="M272.233 278.238L270.679 269.723L182.134 269.767L180.487 278.412L272.233 278.238Z" fill="#B5B4B4"></path><path d="M272.246 278.314L270.693 269.781L182.125 269.83L180.474 278.497L272.246 278.314Z" fill="#B6B5B5"></path><path d="M272.259 278.386L270.702 269.844L182.111 269.897L180.456 278.578L272.259 278.386Z" fill="#B7B6B6"></path><path d="M272.277 278.46L270.715 269.9L182.098 269.958L180.442 278.661L272.277 278.46Z" fill="#B8B7B7"></path><path d="M272.291 278.532L270.724 269.963L182.084 270.021L180.429 278.742L272.291 278.532Z" fill="#B9B8B8"></path><path d="M272.304 278.608L270.738 270.021L182.076 270.088L180.411 278.827L272.304 278.608Z" fill="#BAB9B9"></path><path d="M272.317 278.684L270.746 270.084L182.062 270.151L180.397 278.907L272.317 278.684Z" fill="#BBBABA"></path><path d="M272.33 278.756L270.76 270.143L182.049 270.218L180.379 278.993L272.33 278.756Z" fill="#BCBBBB"></path><path d="M272.344 278.83L270.768 270.203L182.035 270.279L180.366 279.071L272.344 278.83Z" fill="#BDBCBC"></path><path d="M272.357 278.907L270.777 270.262L182.026 270.342L180.353 279.152L272.357 278.907Z" fill="#BDBDBD"></path><path d="M272.371 278.978L270.791 270.324L182.014 270.409L180.335 279.237L272.371 278.978Z" fill="#BEBEBE"></path><path d="M272.384 279.054L270.8 270.383L182 270.472L180.322 279.318L272.384 279.054Z" fill="#BFBFBF"></path><path d="M272.398 279.126L270.813 270.445L181.986 270.535L180.304 279.403L272.398 279.126Z" fill="#C0C0C0"></path><path d="M272.411 279.2L270.822 270.506L181.977 270.6L180.29 279.481L272.411 279.2Z" fill="#C1C1C1"></path><path d="M272.424 279.278L270.835 270.566L181.964 270.665L180.277 279.568L272.424 279.278Z" fill="#C2C2C2"></path><path d="M272.438 279.35L270.845 270.629L181.951 270.732L180.259 279.649L272.438 279.35Z" fill="#C3C3C3"></path><path d="M272.451 279.426L270.858 270.688L181.937 270.795L180.246 279.734L272.451 279.426Z" fill="#C4C4C4"></path><path d="M272.465 279.5L270.867 270.748L181.928 270.855L180.232 279.812L272.465 279.5Z" fill="#C5C5C5"></path><path d="M272.478 279.574L270.88 270.809L181.915 270.925L180.214 279.9L272.478 279.574Z" fill="#C6C6C6"></path><path d="M272.491 279.648L270.889 270.869L181.902 270.985L180.201 279.978L272.491 279.648Z" fill="#C7C7C7"></path><path d="M272.505 279.724L270.902 270.928L181.888 271.048L180.188 280.059L272.505 279.724Z" fill="#C8C8C8"></path><path d="M272.518 279.796L270.912 270.99L181.879 271.115L180.17 280.144L272.518 279.796Z" fill="#C9C9C9"></path><path d="M272.532 279.872L270.921 271.049L181.866 271.178L180.157 280.225L272.532 279.872Z" fill="#CACACA"></path><path d="M272.545 279.948L270.934 271.111L181.852 271.245L180.139 280.31L272.545 279.948Z" fill="#CBCBCB"></path><path d="M272.558 280.018L270.947 271.168L181.839 271.306L180.125 280.389L272.558 280.018Z" fill="#CCCCCC"></path><path d="M272.571 280.094L270.956 271.23L181.83 271.369L180.111 280.473L272.571 280.094Z" fill="#CDCDCD"></path><path d="M272.585 280.166L270.965 271.289L181.817 271.436L180.094 280.554L272.585 280.166Z" fill="#CECECE"></path><path d="M272.599 280.242L270.979 271.352L181.804 271.499L180.081 280.639L272.599 280.242Z" fill="#CFCFCF"></path><path d="M272.612 280.318L270.988 271.414L181.79 271.561L180.067 280.719L272.612 280.318Z" fill="#D0CFCF"></path><path d="M272.625 280.388L271 271.471L181.776 271.627L180.049 280.798L272.625 280.388Z" fill="#D1D0D0"></path><path d="M272.638 280.466L271.009 271.535L181.767 271.691L180.036 280.885L272.638 280.466Z" fill="#D2D1D1"></path><path d="M272.657 280.536L271.023 271.592L181.755 271.757L180.019 280.964L272.657 280.536Z" fill="#D3D2D2"></path><path d="M272.67 280.612L271.032 271.654L181.741 271.819L180.005 281.049L272.67 280.612Z" fill="#D4D3D3"></path><path d="M272.683 280.688L271.045 271.713L181.727 271.882L179.991 281.13L272.683 280.688Z" fill="#D5D4D4"></path><path d="M272.696 280.757L271.054 271.773L181.718 271.947L179.973 281.213L272.696 280.757Z" fill="#D6D5D5"></path><path d="M272.71 280.836L271.068 271.834L181.705 272.013L179.96 281.296L272.71 280.836Z" fill="#D7D6D6"></path><path d="M272.724 280.912L271.077 271.896L181.692 272.079L179.947 281.38L272.724 280.912Z" fill="#D8D7D7"></path><path d="M272.737 280.982L271.09 271.953L181.678 272.141L179.929 281.459L272.737 280.982Z" fill="#D9D8D8"></path><path d="M272.75 281.058L271.099 272.016L181.669 272.203L179.916 281.544L272.75 281.058Z" fill="#DAD9D9"></path><path d="M272.764 281.134L271.113 272.074L181.656 272.271L179.902 281.625L272.764 281.134Z" fill="#DBDADA"></path><path d="M272.777 281.206L271.121 272.137L181.643 272.333L179.884 281.705L272.777 281.206Z" fill="#DCDBDB"></path><path d="M272.79 281.282L271.13 272.195L181.629 272.396L179.871 281.791L272.79 281.282Z" fill="#DDDCDC"></path><path d="M272.804 281.358L271.144 272.258L181.62 272.463L179.853 281.871L272.804 281.358Z" fill="#DEDDDD"></path><path d="M272.817 281.428L271.153 272.314L181.607 272.524L179.84 281.955L272.817 281.428Z" fill="#DFDEDE"></path><path d="M272.831 281.506L271.166 272.379L181.594 272.593L179.826 282.037L272.831 281.506Z" fill="#E0DFDF"></path><path d="M272.844 281.576L271.175 272.436L181.58 272.654L179.808 282.12L272.844 281.576Z" fill="#E1E0E0"></path><path d="M272.857 281.654L271.188 272.5L181.571 272.719L179.795 282.203L272.857 281.654Z" fill="#E2E1E1"></path><path d="M272.871 281.726L271.197 272.555L181.558 272.782L179.782 282.284L272.871 281.726Z" fill="#E3E2E2"></path><path d="M272.885 281.8L271.211 272.619L181.545 272.847L179.764 282.366L272.885 281.8Z" fill="#E3E3E3"></path><path d="M272.898 281.875L271.22 272.682L181.531 272.914L179.75 282.451L272.898 281.875Z" fill="#E4E4E4"></path><path d="M272.911 281.95L271.233 272.738L181.522 272.975L179.737 282.53L272.911 281.95Z" fill="#E5E5E5"></path><path d="M272.924 282.023L271.241 272.803L181.508 273.039L179.719 282.617L272.924 282.023Z" fill="#E6E6E6"></path><path d="M272.938 282.098L271.255 272.859L181.495 273.105L179.706 282.696L272.938 282.098Z" fill="#E7E7E7"></path><path d="M272.951 282.174L271.264 272.922L181.482 273.167L179.688 282.776L272.951 282.174Z" fill="#E8E8E8"></path><path d="M272.965 282.246L271.278 272.98L181.469 273.23L179.675 282.862L272.965 282.246Z" fill="#E9E9E9"></path><path d="M272.978 282.32L271.286 273.041L181.46 273.295L179.661 282.94L272.978 282.32Z" fill="#EAEAEA"></path><path d="M272.991 282.392L271.295 273.1L181.446 273.358L179.643 283.025L272.991 282.392Z" fill="#EBEBEB"></path><path d="M273.009 282.469L271.309 273.164L181.433 273.427L179.63 283.108L273.009 282.469Z" fill="#ECECEC"></path><path d="M273.018 282.544L271.318 273.221L181.42 273.488L179.617 283.191L273.018 282.544Z" fill="#EDEDED"></path><path d="M273.031 282.615L271.331 273.283L181.411 273.551L179.599 283.271L273.031 282.615Z" fill="#EEEEEE"></path><path d="M273.049 282.69L271.34 273.34L181.397 273.617L179.585 283.355L273.049 282.69Z" fill="#EFEFEF"></path><path d="M273.063 282.763L271.353 273.404L181.384 273.681L179.567 283.437L273.063 282.763Z" fill="#F0F0F0"></path><path d="M273.076 282.839L271.362 273.467L181.375 273.744L179.554 283.522L273.076 282.839Z" fill="#F1F1F1"></path><path d="M273.089 282.916L271.376 273.525L181.361 273.811L179.541 283.603L273.089 282.916Z" fill="#F2F2F2"></path><path d="M273.103 282.985L271.385 273.586L181.348 273.872L179.523 283.686L273.103 282.985Z" fill="#F3F3F3"></path><path d="M273.116 283.063L271.398 273.646L181.335 273.941L179.509 283.769L273.116 283.063Z" fill="#F4F4F4"></path><path d="M273.13 283.137L271.407 273.707L181.326 274.002L179.496 283.847L273.13 283.137Z" fill="#F5F5F5"></path><path d="M273.143 283.209L271.42 273.766L181.312 274.065L179.478 283.932L273.143 283.209Z" fill="#F6F6F6"></path><path d="M273.156 283.285L271.429 273.828L181.299 274.132L179.465 284.013L273.156 283.285Z" fill="#EDF2F6"></path><path d="M175.439 304.7L174.279 310.743H278.164L276.209 304.32L175.439 304.7Z" fill="#C4C4C4"></path><path d="M175.452 304.628L174.288 310.697L278.155 310.693L276.213 304.262L175.452 304.628Z" fill="#C5C5C5"></path><path d="M175.466 304.552L174.296 310.657L278.15 310.644L276.218 304.199L175.466 304.552Z" fill="#C6C6C6"></path><path d="M175.479 304.478L174.301 310.611L278.137 310.588L276.222 304.135L175.479 304.478Z" fill="#C7C7C7"></path><path d="M175.493 304.403L174.31 310.57L278.128 310.539L276.227 304.072L175.493 304.403Z" fill="#C8C8C8"></path><path d="M175.506 304.332L174.319 310.527L278.12 310.491L276.232 304.016L175.506 304.332Z" fill="#C9C9C9"></path><path d="M175.524 304.257L174.328 310.487L278.111 310.442L276.236 303.953L175.524 304.257Z" fill="#CACACA"></path><path d="M175.537 304.181L174.336 310.442L278.101 310.393L276.24 303.891L175.537 304.181Z" fill="#CBCBCB"></path><path d="M175.55 304.109L174.345 310.402L278.092 310.344L276.244 303.832L175.55 304.109Z" fill="#CCCCCC"></path><path d="M175.564 304.011L174.35 310.335L278.083 310.269L276.244 303.748L175.564 304.011Z" fill="#CDCDCD"></path><path d="M175.577 303.936L174.359 310.291L278.074 310.22L276.249 303.682L175.577 303.936Z" fill="#CECECE"></path><path d="M175.591 303.858L174.368 310.245L278.066 310.164L276.254 303.617L175.591 303.858Z" fill="#CFCFCF"></path><path d="M175.609 303.784L174.377 310.202L278.057 310.113L276.258 303.557L175.609 303.784Z" fill="#D0D0D0"></path><path d="M175.622 303.704L174.386 310.153L278.048 310.059L276.263 303.494L175.622 303.704Z" fill="#D1D1D1"></path><path d="M175.636 303.627L174.391 310.107L278.039 310.009L276.267 303.426L175.636 303.627Z" fill="#D2D2D2"></path><path d="M175.649 303.551L174.399 310.062L278.03 309.955L276.272 303.363L175.649 303.551Z" fill="#D3D3D3"></path><path d="M175.662 303.477L174.408 310.02L278.021 309.904L276.276 303.303L175.662 303.477Z" fill="#D4D4D4"></path><path d="M175.676 303.4L174.417 309.973L278.012 309.853L276.276 303.234L175.676 303.4Z" fill="#D5D5D5"></path><path d="M175.693 303.326L174.426 309.931L278.003 309.801L276.28 303.174L175.693 303.326Z" fill="#D6D6D6"></path><path d="M175.707 303.243L174.435 309.884L277.994 309.746L276.285 303.109L175.707 303.243Z" fill="#D7D7D7"></path><path d="M175.72 303.167L174.439 309.84L277.985 309.692L276.289 303.047L175.72 303.167Z" fill="#D8D8D8"></path><path d="M175.734 303.092L174.448 309.795L277.976 309.644L276.294 302.98L175.734 303.092Z" fill="#D9D9D9"></path><path d="M175.747 303.016L174.458 309.746L277.968 309.59L276.299 302.918L175.747 303.016Z" fill="#DADADA"></path><path d="M175.761 302.94L174.466 309.702L277.959 309.537L276.303 302.855L175.761 302.94Z" fill="#DBDBDB"></path><path d="M175.778 302.863L174.475 309.656L277.95 309.482L276.307 302.787L175.778 302.863Z" fill="#DCDCDC"></path><path d="M175.792 302.789L174.484 309.613L277.941 309.434L276.307 302.727L175.792 302.789Z" fill="#DDDDDD"></path><path d="M175.805 302.713L174.488 309.568L277.932 309.381L276.312 302.664L175.805 302.713Z" fill="#DDDDDD"></path><path d="M175.819 302.633L174.498 309.524L277.923 309.327L276.316 302.602L175.819 302.633Z" fill="#DEDEDE"></path><path d="M175.832 302.556L174.506 309.478L277.914 309.277L276.321 302.533L175.832 302.556Z" fill="#DFDFDF"></path><path d="M175.845 302.48L174.515 309.433L277.905 309.223L276.325 302.471L175.845 302.48Z" fill="#E0E0E0"></path><path d="M175.863 302.404L174.524 309.389L277.896 309.175L276.329 302.409L175.863 302.404Z" fill="#E1E1E1"></path><path d="M175.877 302.332L174.529 309.348L277.887 309.125L276.334 302.35L175.877 302.332Z" fill="#E2E2E2"></path><path d="M175.89 302.266L174.538 309.308L277.878 309.081L276.339 302.292L175.89 302.266Z" fill="#E3E3E3"></path><path d="M175.903 302.193L174.546 309.272L277.869 309.035L276.343 302.234L175.903 302.193Z" fill="#E4E4E4"></path><path d="M175.916 302.123L174.555 309.233L277.86 308.987L276.343 302.181L175.916 302.123Z" fill="#E5E5E5"></path><path d="M175.935 302.057L174.564 309.197L277.852 308.943L276.348 302.124L175.935 302.057Z" fill="#E6E6E6"></path><path d="M175.948 301.986L174.574 309.158L277.839 308.9L276.352 302.067L175.948 301.986Z" fill="#E7E7E7"></path><path d="M175.961 301.914L174.578 309.117L277.829 308.854L276.356 302.008L175.961 301.914Z" fill="#E8E8E8"></path><path d="M175.974 301.842L174.586 309.081L277.82 308.804L276.361 301.949L175.974 301.842Z" fill="#E9E9E9"></path><path d="M175.988 301.775L174.596 309.041L277.816 308.76L276.365 301.891L175.988 301.775Z" fill="#EAEAEA"></path><path d="M176.001 301.703L174.604 309L277.802 308.714L276.37 301.833L176.001 301.703Z" fill="#EBEBEB"></path><path d="M176.019 301.633L174.613 308.961L277.793 308.666L276.374 301.78L176.019 301.633Z" fill="#ECECEC"></path><path d="M176.032 301.564L174.618 308.924L277.784 308.62L276.374 301.721L176.032 301.564Z" fill="#EDEDED"></path><path d="M176.046 301.494L174.627 308.885L277.776 308.577L276.379 301.664L176.046 301.494Z" fill="#EEEEEE"></path><path d="M176.06 301.424L174.636 308.846L277.767 308.529L276.384 301.607L176.06 301.424Z" fill="#EFEFEF"></path><path d="M176.073 301.352L174.645 308.809L277.758 308.483L276.388 301.548L176.073 301.352Z" fill="#F0F0F0"></path><path d="M176.086 301.307L174.653 308.791L277.748 308.461L276.392 301.512L176.086 301.307Z" fill="#F1F1F1"></path><path d="M176.104 301.232L174.662 308.748L277.739 308.413L276.396 301.456L176.104 301.232Z" fill="#F2F2F2"></path><path d="M176.117 301.158L174.667 308.705L277.73 308.361L276.4 301.39L176.117 301.158Z" fill="#F3F3F3"></path><path d="M176.13 301.084L174.675 308.662L277.721 308.31L276.405 301.329L176.13 301.084Z" fill="#F4F4F4"></path><path d="M176.144 301.01L174.685 308.619L277.713 308.258L276.41 301.269L176.144 301.01Z" fill="#F5F5F5"></path><path d="M176.158 300.938L174.694 308.583L277.704 308.212L276.41 301.21L176.158 300.938Z" fill="#F6F6F6"></path><path d="M176.171 300.865L174.703 308.537L277.695 308.162L276.414 301.146L176.171 300.865Z" fill="#EDF2F6"></path><path d="M290.776 312.991L278.169 310.76H174.279L161.667 312.991C161.479 313.026 161.309 313.125 161.186 313.272C161.064 313.419 160.997 313.604 160.997 313.795V316.312C160.997 316.47 161.059 316.621 161.171 316.733C161.282 316.845 161.433 316.909 161.591 316.91H290.852C291.011 316.91 291.163 316.847 291.275 316.735C291.387 316.622 291.45 316.47 291.45 316.312V313.795C291.449 313.603 291.381 313.418 291.258 313.271C291.135 313.125 290.965 313.026 290.776 312.991V312.991Z" fill="#F6F4F4"></path><path d="M287.549 312.416L278.163 310.742H174.278L164.893 312.416H287.549Z" fill="#BDBCBC"></path><path d="M174.06 310.777C174.06 310.777 171.19 311.295 171.19 311.304L164.826 312.482C164.826 312.482 165.674 312.482 165.679 312.482C165.683 312.482 287.608 312.482 287.617 312.482L281.252 311.304C281.252 311.304 278.392 310.782 278.383 310.777H174.06Z" fill="#BEBDBD"></path><path d="M173.846 310.818C173.846 310.818 171.012 311.336 171.012 311.349L164.764 312.55C164.764 312.55 165.598 312.572 165.612 312.572C165.625 312.572 287.67 312.572 287.688 312.55L281.44 311.349C281.44 311.349 278.624 310.823 278.61 310.818H173.846Z" fill="#BFBEBE"></path><path d="M173.627 310.858C173.605 310.858 170.833 311.371 170.833 311.393L164.692 312.616C164.692 312.616 165.518 312.647 165.536 312.647C165.554 312.647 287.724 312.647 287.751 312.616L281.614 311.393C281.614 311.393 278.838 310.862 278.82 310.858H277.878C277.878 310.858 173.685 310.844 173.627 310.858Z" fill="#C0BFBF"></path><path d="M173.409 310.897C173.382 310.897 170.655 311.405 170.655 311.432L164.625 312.682C164.625 312.709 165.442 312.726 165.465 312.726C165.487 312.726 287.777 312.726 287.818 312.682L281.792 311.432C281.792 311.405 279.061 310.901 279.034 310.897H278.093C278.093 310.897 173.489 310.879 173.409 310.897Z" fill="#C1C0C0"></path><path d="M173.212 310.924C173.181 310.924 170.499 311.433 170.499 311.468L164.581 312.745C164.858 312.775 165.136 312.792 165.415 312.794C165.415 312.794 287.857 312.794 287.911 312.745L281.993 311.468C281.993 311.433 279.315 310.933 279.275 310.924H278.329C278.329 310.924 173.292 310.924 173.212 310.924Z" fill="#C2C1C1"></path><path d="M172.976 310.973C172.936 310.973 170.298 311.482 170.298 311.522L164.496 312.821C164.771 312.857 165.049 312.877 165.326 312.879C165.326 312.879 287.898 312.879 287.96 312.821L282.158 311.522C282.158 311.482 279.521 310.982 279.481 310.973L278.53 310.951C278.53 310.951 173.096 310.951 172.976 310.973Z" fill="#C3C2C2"></path><path d="M172.766 311.015C172.717 311.015 170.128 311.519 170.128 311.568L164.434 312.907C164.707 312.951 164.983 312.974 165.259 312.979C165.259 312.979 287.96 312.979 288.032 312.907L282.337 311.568C282.337 311.519 279.744 311.024 279.699 311.015L278.744 310.988C278.744 310.988 172.895 310.988 172.766 311.015Z" fill="#C4C3C3"></path><path d="M172.539 311.05C172.485 311.05 169.941 311.555 169.941 311.608L164.358 312.947C164.629 312.998 164.904 313.025 165.179 313.027C165.179 313.027 288.005 313.027 288.09 312.947L282.507 311.608C282.507 311.555 279.958 311.064 279.905 311.05L278.945 311.023C278.945 311.023 172.699 311.023 172.539 311.05Z" fill="#C5C4C4"></path><path d="M172.32 311.09C172.257 311.09 169.758 311.594 169.758 311.652L164.286 313.022C164.553 313.079 164.825 313.109 165.098 313.112C165.098 313.112 288.058 313.112 288.152 313.022L282.68 311.652C282.68 311.594 280.177 311.099 280.119 311.09L279.155 311.059C279.155 311.059 172.503 311.059 172.32 311.09Z" fill="#C6C5C5"></path><path d="M172.105 311.129C172.038 311.129 169.579 311.629 169.579 311.696L164.224 313.089C164.488 313.153 164.759 313.187 165.031 313.191C165.031 313.191 288.121 313.191 288.21 313.089L282.855 311.696C282.855 311.629 280.4 311.138 280.333 311.129L279.364 311.094C279.364 311.094 172.32 311.094 172.105 311.129Z" fill="#C7C6C6"></path><path d="M171.873 311.167C171.802 311.167 169.387 311.666 169.387 311.742L164.157 313.157C164.419 313.229 164.689 313.266 164.96 313.269C164.96 313.269 288.179 313.269 288.29 313.157L283.042 311.742C283.042 311.666 280.632 311.18 280.556 311.167L279.588 311.131C279.588 311.131 172.105 311.131 171.873 311.167Z" fill="#C8C7C7"></path><path d="M171.668 311.204C170.843 311.355 170.027 311.548 169.222 311.784L164.09 313.222C164.349 313.299 164.618 313.34 164.889 313.342C164.889 313.342 288.233 313.342 288.357 313.222L283.221 311.784C282.416 311.548 281.6 311.355 280.775 311.204L279.802 311.164C279.802 311.164 171.909 311.164 171.668 311.204Z" fill="#C9C8C8"></path><path d="M171.454 311.247C170.641 311.397 169.836 311.59 169.044 311.828L164.023 313.292C164.023 313.363 164.746 313.425 164.817 313.425C164.817 313.425 288.291 313.425 288.442 313.292L283.399 311.819C282.608 311.582 281.805 311.388 280.994 311.239L280.016 311.189C280.016 311.189 171.713 311.198 171.454 311.247Z" fill="#CAC9C9"></path><path d="M171.235 311.286C170.434 311.432 169.643 311.627 168.865 311.871L163.956 313.357C163.956 313.437 164.67 313.5 164.75 313.5C164.75 313.5 288.375 313.5 288.496 313.357L283.587 311.871C282.811 311.627 282.021 311.432 281.221 311.286L280.235 311.232C280.235 311.232 171.516 311.232 171.235 311.286Z" fill="#CBCACA"></path><path d="M171.016 311.321C170.918 311.321 168.686 311.812 168.686 311.915L163.884 313.423C163.884 313.508 164.589 313.575 164.674 313.575C164.674 313.575 288.406 313.575 288.558 313.423L283.756 311.915C283.756 311.812 281.524 311.339 281.426 311.321L280.44 311.268C280.44 311.268 171.315 311.268 171.016 311.321Z" fill="#CCCACA"></path><path d="M170.802 311.37C170.695 311.37 168.508 311.856 168.508 311.968L163.84 313.49C163.84 313.579 164.536 313.655 164.625 313.655C164.625 313.655 288.482 313.655 288.648 313.49L283.957 311.959C283.957 311.847 281.774 311.379 281.667 311.361L280.677 311.303C280.677 311.303 171.119 311.303 170.802 311.37Z" fill="#CDCBCB"></path><path d="M170.583 311.402C170.467 311.402 168.33 311.889 168.33 312.005L163.75 313.558C163.75 313.656 164.433 313.732 164.532 313.732C164.532 313.732 288.518 313.732 288.692 313.558L284.117 312.005C284.117 311.889 281.975 311.42 281.886 311.402L280.891 311.34C280.891 311.34 170.923 311.34 170.583 311.402Z" fill="#CECCCC"></path><path d="M170.364 311.438C170.244 311.46 168.133 311.925 168.133 312.045L163.67 313.625C163.67 313.728 164.344 313.812 164.446 313.812C164.446 313.812 288.562 313.812 288.745 313.625L284.282 312.045C284.282 311.925 282.185 311.46 282.051 311.438L281.082 311.371C281.082 311.371 170.726 311.371 170.364 311.438Z" fill="#CFCDCD"></path><path d="M170.146 311.477C170.021 311.477 167.972 311.959 167.972 312.089L163.616 313.691C163.616 313.798 164.281 313.887 164.388 313.887C164.388 313.887 288.634 313.887 288.826 313.691L284.474 312.089C284.474 311.959 282.426 311.499 282.296 311.477L281.296 311.41C281.296 311.41 170.534 311.41 170.146 311.477Z" fill="#D0CECE"></path><path d="M169.932 311.519C169.798 311.519 167.794 311.996 167.794 312.135L163.55 313.759C163.55 313.875 164.201 313.964 164.317 313.964C164.317 313.964 288.688 313.964 288.893 313.759L284.653 312.135C284.653 311.996 282.649 311.541 282.515 311.519L281.507 311.447C281.507 311.447 170.329 311.447 169.932 311.519Z" fill="#D1CFCF"></path><path d="M169.713 311.554C169.57 311.581 167.616 312.036 167.616 312.179L163.483 313.825C163.483 313.946 164.126 314.044 164.246 314.044C164.246 314.044 288.764 314.044 288.96 313.825L284.832 312.179C284.832 312.036 282.872 311.581 282.734 311.554L281.721 311.482C281.721 311.482 170.133 311.482 169.713 311.554Z" fill="#D2D0D0"></path><path d="M169.494 311.593C169.347 311.62 167.437 312.071 167.437 312.223L163.42 313.892C163.42 314.017 164.054 314.119 164.179 314.119C164.179 314.119 288.808 314.12 289.035 313.892L285.019 312.223C285.019 312.071 283.104 311.62 282.957 311.593L281.944 311.518C281.944 311.518 169.936 311.518 169.494 311.593Z" fill="#D3D1D1"></path><path d="M169.275 311.634C169.124 311.66 167.258 312.107 167.258 312.263L163.349 313.959C163.349 314.093 163.969 314.195 164.103 314.195C164.103 314.195 288.861 314.195 289.098 313.959L285.188 312.263C285.188 312.107 283.323 311.66 283.167 311.634L282.149 311.549C282.149 311.549 169.735 311.549 169.275 311.634Z" fill="#D4D2D2"></path><path d="M169.061 311.675C168.901 311.702 167.075 312.148 167.075 312.309L163.282 314.027C163.282 314.166 163.893 314.277 164.027 314.277C164.027 314.277 288.915 314.277 289.165 314.027L285.367 312.309C285.367 312.148 283.546 311.702 283.385 311.675L282.363 311.586C282.363 311.586 169.539 311.586 169.061 311.675Z" fill="#D5D3D3"></path><path d="M168.843 311.71C168.678 311.742 166.897 312.183 166.897 312.353L163.215 314.098C163.215 314.236 163.817 314.352 163.956 314.352C163.956 314.352 288.973 314.352 289.232 314.098L285.546 312.353C285.546 312.183 283.76 311.742 283.604 311.71L282.578 311.621C282.578 311.621 169.343 311.621 168.843 311.71Z" fill="#D6D4D4"></path><path d="M168.624 311.75C168.45 311.781 166.718 312.196 166.718 312.397L163.148 314.182C163.148 314.33 163.737 314.446 163.884 314.446C163.884 314.446 289.031 314.446 289.294 314.182L285.724 312.397C285.724 312.219 283.992 311.781 283.818 311.75L282.787 311.656C282.787 311.656 169.146 311.656 168.624 311.75Z" fill="#D7D5D5"></path><path d="M168.41 311.792C168.227 311.823 166.54 312.238 166.54 312.439L163.081 314.224C163.081 314.376 163.661 314.501 163.813 314.501C163.813 314.501 289.089 314.501 289.366 314.224L285.903 312.439C285.903 312.256 284.216 311.823 284.037 311.792L283.002 311.693C283.002 311.693 168.945 311.693 168.41 311.792Z" fill="#D8D6D6"></path><path d="M168.191 311.815C168.004 311.851 166.361 312.284 166.361 312.471L163.014 314.287C163.014 314.444 163.585 314.573 163.742 314.573C163.742 314.573 289.152 314.573 289.433 314.287L286.081 312.471C286.081 312.284 284.443 311.851 284.256 311.815L283.216 311.717C283.216 311.717 168.749 311.726 168.191 311.815Z" fill="#D9D7D7"></path><path d="M167.972 311.866C167.78 311.902 166.187 312.313 166.187 312.527L162.947 314.366C162.947 314.531 163.505 314.66 163.67 314.66C163.67 314.66 289.2 314.66 289.499 314.366L286.259 312.527C286.259 312.33 284.666 311.902 284.474 311.866L283.434 311.764C283.434 311.764 168.552 311.764 167.972 311.866Z" fill="#DAD8D8"></path><path d="M167.754 311.906C167.553 311.942 166.004 312.352 166.004 312.571L162.88 314.432C162.88 314.602 163.429 314.74 163.599 314.74C163.599 314.74 289.259 314.74 289.567 314.432L286.443 312.571C286.443 312.366 284.89 311.942 284.689 311.906L283.645 311.799C283.645 311.799 168.356 311.817 167.754 311.906Z" fill="#DAD9D9"></path><path d="M167.539 311.942C167.33 311.982 165.826 312.388 165.826 312.616L162.809 314.495C162.809 314.669 163.353 314.812 163.527 314.812C163.527 314.812 289.317 314.812 289.634 314.495L286.621 312.612C286.621 312.397 285.113 311.978 284.907 311.938L283.858 311.83C283.858 311.83 168.155 311.817 167.539 311.942Z" fill="#DBDADA"></path><path d="M167.321 311.981C167.107 312.021 165.648 312.427 165.648 312.655L162.742 314.565C162.742 314.748 163.273 314.891 163.456 314.891C163.456 314.891 289.375 314.891 289.701 314.565L286.8 312.655C286.8 312.44 285.341 312.021 285.126 311.981L284.069 311.869C284.069 311.869 167.959 311.869 167.321 311.981Z" fill="#DCDBDB"></path><path d="M167.103 312.023C166.884 312.063 165.469 312.47 165.469 312.702L162.675 314.634C162.675 314.822 163.197 314.973 163.385 314.973C163.385 314.973 289.429 314.973 289.768 314.634L286.979 312.711C286.979 312.487 285.564 312.072 285.341 312.032L284.283 311.916C284.283 311.916 167.763 311.907 167.103 312.023Z" fill="#DDDCDC"></path><path d="M166.888 312.062C166.661 312.103 165.291 312.509 165.291 312.745L162.613 314.7C162.613 314.892 163.126 315.048 163.318 315.048C163.318 315.048 289.491 315.048 289.839 314.7L287.162 312.745C287.162 312.513 285.791 312.103 285.564 312.062L284.502 311.938C284.502 311.938 167.567 311.937 166.888 312.062Z" fill="#DEDDDD"></path><path d="M166.669 312.098C166.433 312.142 165.112 312.544 165.112 312.789L162.541 314.766C162.541 314.963 163.041 315.124 163.242 315.124C163.242 315.124 289.544 315.124 289.902 314.766L287.335 312.789C287.335 312.548 285.996 312.142 285.778 312.098L284.711 311.973C284.711 311.973 167.366 311.973 166.669 312.098Z" fill="#DFDEDE"></path><path d="M166.451 312.137C166.21 312.182 164.933 312.584 164.933 312.833L162.474 314.833C162.474 315.038 162.965 315.203 163.17 315.203C163.17 315.203 289.603 315.203 289.968 314.833L287.514 312.833C287.514 312.588 286.233 312.182 285.992 312.137L284.925 312.008C284.925 312.008 167.169 312.008 166.451 312.137Z" fill="#E0DFDF"></path><path d="M166.232 312.179C165.987 312.223 164.75 312.625 164.75 312.875L162.407 314.901C162.407 315.111 162.889 315.281 163.099 315.281C163.099 315.281 289.656 315.281 290.035 314.901L287.692 312.875C287.692 312.625 286.461 312.223 286.211 312.179L285.14 312.045C285.14 312.045 166.964 312.045 166.232 312.179Z" fill="#E1E0E0"></path><path d="M166.018 312.214C165.763 312.263 164.572 312.66 164.572 312.919L162.34 314.968C162.34 315.182 162.809 315.36 163.028 315.36C163.028 315.36 289.714 315.36 290.102 314.968L287.871 312.919C287.871 312.66 286.684 312.263 286.429 312.214L285.349 312.08C285.349 312.08 166.777 312.08 166.018 312.214Z" fill="#E2E1E1"></path><path d="M165.799 312.262C165.536 312.311 164.393 312.708 164.393 312.971L162.273 315.042C162.273 315.265 162.72 315.444 162.952 315.444C162.952 315.444 289.772 315.444 290.174 315.042L288.05 312.971C288.05 312.708 286.907 312.311 286.648 312.262L285.564 312.123C285.564 312.123 166.576 312.114 165.799 312.262Z" fill="#E3E2E2"></path><path d="M165.581 312.295C165.313 312.34 164.215 312.741 164.215 313.009L162.207 315.102C162.207 315.33 162.653 315.513 162.88 315.513C162.88 315.513 289.83 315.513 290.241 315.102L288.228 313.009C288.228 312.737 287.13 312.34 286.862 312.295L285.778 312.152C285.778 312.152 166.379 312.152 165.581 312.295Z" fill="#E4E3E3"></path><path d="M165.366 312.33C165.089 312.379 164.027 312.777 164.027 313.053L162.13 315.169C162.13 315.401 162.577 315.615 162.8 315.615C162.8 315.615 289.875 315.615 290.299 315.169L288.397 313.053C288.397 312.772 287.349 312.379 287.059 312.33L285.97 312.188C285.97 312.188 166.183 312.188 165.366 312.33Z" fill="#E5E4E4"></path><path d="M165.147 312.37C164.866 312.419 163.857 312.816 163.857 313.093L162.072 315.235C162.072 315.476 162.519 315.681 162.737 315.681C162.737 315.681 289.933 315.681 290.379 315.235L288.594 313.093C288.594 312.807 287.59 312.419 287.308 312.37L286.215 312.223C286.215 312.223 165.986 312.223 165.147 312.37Z" fill="#E6E5E5"></path><path d="M164.929 312.41C164.643 312.459 163.679 312.856 163.679 313.137L162.005 315.302C162.005 315.547 162.425 315.748 162.666 315.748C162.666 315.748 290 315.748 290.441 315.302L288.763 313.155C288.763 312.865 287.804 312.477 287.514 312.427L286.416 312.276C286.416 312.276 165.786 312.262 164.929 312.41Z" fill="#E7E6E6"></path><path d="M164.732 312.45C164.438 312.499 163.523 312.896 163.523 313.182L161.961 315.373C161.961 315.618 162.367 315.819 162.617 315.819C162.617 315.819 290.08 315.819 290.531 315.373L288.969 313.182C288.969 312.883 288.049 312.499 287.755 312.45L286.653 312.289C286.653 312.289 165.589 312.289 164.732 312.45Z" fill="#E8E6E6"></path><path d="M164.496 312.487C164.192 312.54 163.322 312.933 163.322 313.228L161.872 315.459C161.872 315.714 162.269 315.905 162.523 315.905C162.523 315.905 290.111 315.905 290.575 315.459L289.125 313.228C289.125 312.92 288.232 312.54 287.951 312.487L286.844 312.326C286.844 312.326 165.393 312.326 164.496 312.487Z" fill="#E9E7E7"></path><path d="M164.286 312.526C163.978 312.58 163.152 312.973 163.152 313.267L161.813 315.499C161.813 315.758 162.202 315.967 162.461 315.967C162.461 315.967 290.178 315.967 290.651 315.499L289.312 313.267C289.312 312.955 288.487 312.58 288.179 312.526L287.067 312.361C287.067 312.361 165.179 312.361 164.286 312.526Z" fill="#EAE8E8"></path><path d="M164.058 312.568C163.746 312.622 162.965 313.014 162.965 313.313L161.737 315.576C161.737 315.839 162.112 316.058 162.38 316.058C162.38 316.058 290.227 316.058 290.709 315.576L289.482 313.313C289.482 312.996 288.701 312.622 288.384 312.568L287.272 312.398C287.272 312.398 164.995 312.398 164.058 312.568Z" fill="#EBE9E9"></path><path d="M163.839 312.603C163.518 312.661 162.786 313.049 162.786 313.357L161.67 315.642C161.67 315.915 162.036 316.133 162.309 316.133C162.309 316.133 290.285 316.133 290.776 315.642L289.66 313.357C289.66 313.032 288.924 312.661 288.602 312.603L287.487 312.434C287.487 312.434 164.799 312.434 163.839 312.603Z" fill="#ECEAEA"></path><path d="M163.625 312.643C163.295 312.701 162.608 313.067 162.608 313.402L161.608 315.709C161.608 315.986 161.969 316.209 162.246 316.209C162.246 316.209 290.334 316.209 290.852 315.709L289.848 313.402C289.848 313.067 289.156 312.701 288.83 312.643L287.705 312.469C287.705 312.469 164.603 312.469 163.625 312.643Z" fill="#EDEBEB"></path><path d="M163.393 312.682C163.059 312.74 162.416 313.102 162.416 313.446L161.523 315.775C161.523 316.056 161.872 316.289 162.157 316.289C162.157 316.289 290.388 316.289 290.901 315.775L290.009 313.446C290.009 313.102 289.361 312.74 289.031 312.682L287.902 312.504C287.902 312.504 164.407 312.504 163.393 312.682Z" fill="#EEECEC"></path><path d="M163.188 312.708C162.849 312.77 162.246 313.154 162.246 313.475L161.465 315.832C161.489 315.98 161.566 316.115 161.682 316.211C161.798 316.307 161.944 316.358 162.095 316.354C162.095 316.354 290.455 316.354 290.977 315.832L290.196 313.475C290.196 313.132 289.598 312.77 289.254 312.708L288.125 312.529C288.125 312.529 164.206 312.538 163.188 312.708Z" fill="#EFEDED"></path><path d="M162.974 312.759C162.626 312.822 162.082 313.179 162.082 313.531L161.412 315.91C161.433 316.06 161.508 316.197 161.623 316.295C161.739 316.393 161.886 316.445 162.037 316.441C162.037 316.441 290.527 316.441 291.058 315.91L290.388 313.531C290.388 313.179 289.835 312.822 289.496 312.759L288.358 312.576C288.358 312.576 164.01 312.576 162.974 312.759Z" fill="#F0EEEE"></path><path d="M162.755 312.801C162.398 312.863 161.889 313.216 161.889 313.577L161.332 315.978C161.349 316.13 161.422 316.269 161.537 316.37C161.652 316.47 161.799 316.525 161.952 316.523C161.952 316.523 290.571 316.523 291.111 315.978L290.553 313.577C290.553 313.216 290.044 312.863 289.692 312.801L288.554 312.613C288.554 312.613 163.813 312.613 162.755 312.801Z" fill="#F1EFEF"></path><path d="M162.536 312.839C162.175 312.901 161.71 313.25 161.71 313.62L161.264 316.043C161.278 316.196 161.348 316.337 161.461 316.44C161.575 316.542 161.723 316.599 161.876 316.597C161.876 316.597 290.624 316.597 291.177 316.043L290.731 313.62C290.731 313.25 290.285 312.901 289.906 312.839L288.767 312.643C288.767 312.643 163.616 312.643 162.536 312.839Z" fill="#F2F0F0"></path><path d="M162.318 312.874C162.121 312.907 161.939 313.001 161.798 313.143C161.657 313.284 161.564 313.467 161.532 313.664L161.198 316.11C161.208 316.263 161.277 316.407 161.389 316.512C161.502 316.616 161.651 316.674 161.805 316.672C161.805 316.672 290.683 316.672 291.232 316.11L290.897 313.664C290.866 313.467 290.773 313.284 290.632 313.142C290.491 313 290.309 312.906 290.111 312.874L288.964 312.678C288.964 312.678 163.416 312.678 162.318 312.874Z" fill="#F3F1F1"></path><path d="M162.104 312.916C161.909 312.946 161.73 313.04 161.594 313.183C161.459 313.326 161.374 313.51 161.354 313.706L161.131 316.178C161.138 316.333 161.204 316.48 161.317 316.587C161.429 316.694 161.578 316.754 161.733 316.754C161.733 316.754 290.741 316.754 291.312 316.178L291.089 313.706C291.069 313.51 290.985 313.327 290.85 313.184C290.715 313.041 290.537 312.947 290.343 312.916L289.192 312.715C289.192 312.715 163.22 312.71 162.104 312.916Z" fill="#F4F2F2"></path><path d="M161.885 312.955C161.694 312.987 161.519 313.084 161.39 313.228C161.262 313.372 161.186 313.556 161.175 313.75L161.063 316.245C161.066 316.401 161.13 316.551 161.242 316.66C161.354 316.77 161.505 316.83 161.662 316.829C161.662 316.829 290.798 316.829 291.383 316.245L291.271 313.75C291.261 313.556 291.185 313.372 291.056 313.228C290.927 313.084 290.753 312.987 290.562 312.955L289.406 312.75C289.406 312.75 163.023 312.75 161.885 312.955Z" fill="#F5F3F3"></path><path d="M290.776 312.99L289.621 312.785H162.827L161.667 312.99C161.479 313.025 161.309 313.124 161.186 313.271C161.064 313.418 160.997 313.603 160.997 313.794V316.311C160.997 316.469 161.059 316.62 161.171 316.732C161.282 316.844 161.433 316.908 161.591 316.909H290.852C291.011 316.909 291.163 316.846 291.275 316.734C291.387 316.622 291.45 316.47 291.45 316.311V313.794C291.449 313.602 291.381 313.417 291.258 313.271C291.135 313.124 290.965 313.025 290.776 312.99V312.99Z" fill="#EDF2F6"></path><path d="M387.012 36.0039H51.9926C46.463 36.0039 42 40.8507 42 46.8356V258.288C42 264.268 46.463 269.12 51.9926 269.12H387.012C392.528 269.12 397 264.268 397 258.288V46.8356C397 40.8507 392.528 36.0039 387.012 36.0039Z" fill="url(#paint0_linear_2251_22778)"></path><path d="M385.477 37.8691H53.2735C47.8019 37.8691 43.3701 42.6445 43.3701 48.5268V256.596C43.3701 262.478 47.8063 267.254 53.2735 267.254H385.477C390.948 267.254 395.38 262.478 395.38 256.596V48.5268C395.38 42.6445 390.944 37.8691 385.477 37.8691Z" fill="#1E1E1E"></path><path d="M223.251 46.461C225.028 46.461 226.469 45.0204 226.469 43.2432C226.469 41.4661 225.028 40.0254 223.251 40.0254C221.474 40.0254 220.033 41.4661 220.033 43.2432C220.033 45.0204 221.474 46.461 223.251 46.461Z" stroke="#262626" stroke-width="0.031241" stroke-miterlimit="10"></path><path d="M387.431 46.4551H51.042V260.219H387.431V46.4551Z" fill="#E8EEF4"></path><path d="M374.298 245.156H374.221C373.607 245.139 373.015 244.917 372.541 244.525C372.067 244.133 371.738 243.594 371.606 242.993L341.025 104.91L316.356 205.756C316.218 206.317 315.907 206.821 315.468 207.196C315.028 207.572 314.482 207.8 313.906 207.848C313.33 207.896 312.753 207.762 312.257 207.466C311.761 207.169 311.371 206.724 311.142 206.193L299.041 178.135H228.761C228.028 178.135 227.326 177.844 226.809 177.326C226.291 176.808 226 176.106 226 175.374C226 174.642 226.291 173.94 226.809 173.422C227.326 172.904 228.028 172.613 228.761 172.613H300.843C301.383 172.614 301.911 172.773 302.362 173.07C302.813 173.367 303.167 173.789 303.381 174.285L312.944 196.447L338.464 92.0882C338.615 91.487 338.964 90.9541 339.454 90.5753C339.945 90.1965 340.549 89.9939 341.169 90.0001C341.789 90.0063 342.388 90.221 342.872 90.6095C343.355 90.998 343.693 91.5378 343.832 92.1419L374.62 231.1L403.683 128.29C403.848 127.715 404.197 127.209 404.675 126.849C405.154 126.489 405.737 126.295 406.336 126.297C406.937 126.297 407.521 126.494 408 126.856C408.479 127.219 408.826 127.728 408.99 128.306L421.596 172.636H474.239C474.972 172.636 475.674 172.927 476.191 173.445C476.709 173.963 477 174.665 477 175.397C477 176.129 476.709 176.831 476.191 177.349C475.674 177.867 474.972 178.158 474.239 178.158H419.51C418.911 178.157 418.328 177.962 417.849 177.601C417.37 177.24 417.022 176.733 416.857 176.156L406.344 139.179L376.959 243.147C376.794 243.725 376.445 244.234 375.965 244.597C375.485 244.959 374.9 245.156 374.298 245.156V245.156Z" fill="#A7BCD2"></path><path d="M96.2644 218.279C95.3244 218.429 94.4044 218.539 93.5244 218.609L93.0444 212.309C94.3493 212.203 95.6456 212.009 96.9244 211.729C115.764 207.619 113.614 171.939 111.334 134.179C109.994 112.119 108.614 89.319 111.494 71.289C114.874 49.829 123.964 38.149 139.264 35.709L140.264 41.949C112.324 46.489 115.004 90.879 117.604 133.809C120.054 174.349 122.364 212.639 98.2344 217.899C97.5444 218.039 96.8844 218.149 96.2644 218.279Z" fill="#2E5D7D"></path><path d="M266.874 69.8594C249.874 32.3194 201.264 28.0694 176.494 71.1494C175.653 72.6193 174.526 73.9067 173.181 74.9361C171.836 75.9655 170.299 76.7163 168.66 77.1446C167.021 77.573 165.314 77.6702 163.637 77.4306C161.96 77.191 160.348 76.6195 158.894 75.7494C116.184 50.3494 75.8945 77.8394 79.4645 118.889C82.4645 153.089 137.824 200.569 192.584 221.029C197.037 222.689 201.893 222.933 206.489 221.728C211.086 220.524 215.198 217.929 218.264 214.299C255.974 169.649 281.034 101.149 266.874 69.8594Z" fill="#4EBCBA"></path><path d="M266.394 57.268C261.484 43.198 250.604 31.368 236.214 26.268C214.954 18.688 192.654 27.808 178.264 44.148C172.291 51.0909 167.412 58.904 163.794 67.318C116.084 24.318 63.5344 52.398 65.5044 100.098C66.4444 122.918 84.5044 143.798 99.7144 159.098C113.804 173.238 129.954 189.218 149.954 194.098C210.364 208.808 261.144 149.318 268.434 94.508C269.539 86.3218 269.75 78.0398 269.064 69.808C268.7 65.5332 267.803 61.3206 266.394 57.268Z" fill="#ACE6E3"></path><path opacity="0.2" d="M85.7747 106.959C85.0047 111.719 85.0947 116.799 87.2347 121.119C88.1347 122.929 90.0047 124.779 91.8947 124.119C93.5047 123.519 93.9547 121.499 94.2047 119.799C95.6447 109.799 98.3547 99.5291 105.315 92.2591C108.065 89.3791 111.415 87.0591 113.805 83.8691C114.338 83.246 114.7 82.4946 114.855 81.6891C116.125 71.7991 99.0147 84.3091 97.2847 85.7891C91.1065 91.2953 87.0371 98.7801 85.7747 106.959V106.959Z" fill="white"></path><path opacity="0.2" d="M125.855 79.8084C128.332 80.2609 130.869 80.2846 133.355 79.8784C134.079 79.8154 134.782 79.5971 135.415 79.2384C135.733 79.0599 136.001 78.8043 136.195 78.4951C136.389 78.1858 136.502 77.8328 136.525 77.4684C136.525 72.1584 128.525 72.6084 125.335 73.7984C124.185 74.2384 122.925 74.7984 122.545 75.9884C122.411 76.5831 122.474 77.2052 122.725 77.7607C122.976 78.3163 123.4 78.7753 123.935 79.0684C124.532 79.4137 125.18 79.6634 125.855 79.8084V79.8084Z" fill="white"></path><path d="M31.6345 111.518C32.3064 114.607 32.048 117.826 30.8918 120.769C29.7355 123.712 27.7334 126.246 25.1382 128.052C22.5429 129.857 19.4708 130.854 16.3098 130.915C13.1487 130.976 10.0404 130.099 7.37715 128.396C4.71393 126.692 2.61521 124.237 1.34595 121.341C0.0766852 118.446 -0.306221 115.239 0.245561 112.126C0.797342 109.012 2.25907 106.133 4.44624 103.85C6.6334 101.566 9.44793 99.9826 12.5345 99.2978C14.5913 98.8415 16.7179 98.7958 18.7924 99.1635C20.8668 99.5312 22.8482 100.305 24.6229 101.44C26.3975 102.576 27.9304 104.05 29.1337 105.78C30.337 107.509 31.1868 109.459 31.6345 111.518Z" fill="#C1E3F9"></path><path d="M28.2648 112.328C28.7441 114.52 28.5627 116.806 27.7437 118.895C26.9247 120.984 25.5047 122.784 23.6633 124.066C21.8218 125.349 19.6415 126.057 17.3979 126.1C15.1543 126.144 12.9481 125.522 11.058 124.312C9.16796 123.102 7.67894 121.359 6.77911 119.304C5.87928 117.248 5.60903 114.972 6.00251 112.762C6.396 110.553 7.43555 108.51 8.98981 106.891C10.5441 105.273 12.5433 104.151 14.7348 103.668C17.6773 103.023 20.7558 103.572 23.2931 105.196C25.8304 106.82 27.6187 109.386 28.2648 112.328V112.328Z" fill="#A2C6DB"></path><path d="M93.4846 218.609C73.4846 220.129 68.4845 200.789 62.6345 178.389C60.0945 168.659 57.2245 157.639 52.8745 146.829C44.4246 125.779 35.8745 119.209 30.2645 117.389C28.7863 116.85 27.211 116.628 25.6414 116.739C24.0717 116.849 22.5429 117.289 21.1545 118.029L17.6646 112.769C19.8044 111.526 22.1844 110.751 24.6464 110.498C27.1084 110.245 29.5962 110.518 31.9445 111.299C42.1445 114.429 51.1546 125.589 58.7346 144.469C63.2246 155.659 66.1546 166.889 68.7346 176.799C75.0146 200.869 78.9445 213.379 92.9945 212.309L93.4846 218.609Z" fill="#2E5D7D"></path><path d="M246.505 221.608H246.375L245.375 215.378H245.505C260.725 212.898 275.935 201.848 273.765 139.378L280.075 139.158C281.955 192.798 271.915 217.478 246.505 221.608Z" fill="#2E5D7D"></path><path d="M246.374 221.628C245.254 221.808 244.084 221.948 242.884 222.058C211.634 224.718 199.944 176.058 188.624 128.958C177.844 84.0881 166.704 37.6881 140.294 41.9581L139.294 35.7181C171.474 30.5481 183.294 79.8381 194.764 127.498C205.454 171.988 216.504 217.988 242.344 215.788C243.394 215.698 244.414 215.568 245.344 215.418L246.374 221.628Z" fill="#2E5D7D"></path><path d="M235.854 90.3084C232.124 78.2184 229.474 66.3084 227.164 55.3084C224.164 40.8284 225.604 29.4484 231.394 22.3884C235.564 17.3084 241.974 14.5484 249.464 14.6084V18.8184C245.084 18.8184 238.974 19.8184 234.694 25.0584C229.694 31.0584 228.574 41.2584 231.324 54.4484C233.614 65.4484 236.234 77.1684 239.914 89.0884L235.854 90.3084Z" fill="#C1E3F9"></path><path d="M312.885 89.0892C302.825 119.689 290.735 135.149 276.965 135.009C263.195 134.889 251.395 119.219 241.885 88.4492L233.885 90.9292C244.745 126.089 258.825 143.269 276.885 143.429C278.452 143.449 280.018 143.332 281.565 143.079C297.495 140.489 310.395 123.619 320.885 91.7192L312.885 89.0892Z" fill="#2E5D7D"></path><path d="M318.885 91.0591L314.885 89.7491C318.775 77.8991 321.615 66.1791 324.105 55.2791C327.105 42.1391 326.105 31.9591 321.275 25.8291C317.085 20.5291 310.995 19.3691 306.625 19.3291V15.1191C314.105 15.1791 320.465 18.0591 324.545 23.2191C330.205 30.3791 331.455 41.7891 328.165 56.2191C325.695 67.2191 322.835 79.0491 318.885 91.0591Z" fill="#C1E3F9"></path><path d="M248.111 12.5273L241.82 13.5293L243.21 22.2593L249.501 21.2573L248.111 12.5273Z" fill="#2E5D7D"></path><path d="M266.925 14.0076C266.903 13.7875 266.832 13.5753 266.715 13.3876C265.065 9.59764 256.975 8.60764 254.715 8.38764C252.455 8.16764 250.215 9.10764 248.145 12.5676L248.565 15.1476L249.125 18.6876L249.535 21.2776C252.535 23.9176 254.855 24.1876 257.075 23.2076C259.295 22.2276 266.555 18.8076 266.945 14.6976C267 14.4845 267 14.2608 266.945 14.0476L266.925 14.0076Z" fill="#A2C6DB"></path><path d="M282.185 8.96869C282.985 13.9687 276.615 19.1687 267.975 20.5487C259.335 21.9287 251.665 18.9787 250.865 13.9587C250.065 8.93869 256.425 3.75869 265.075 2.37869C273.725 0.998692 281.385 3.94869 282.185 8.96869Z" fill="#C1E3F9"></path><path d="M306.945 21.1653L313.248 22.0859L314.526 13.3388L308.223 12.4181L306.945 21.1653Z" fill="#2E5D7D"></path><path d="M289.435 14.148C289.451 13.9269 289.523 13.7136 289.645 13.528C291.245 9.71803 299.315 8.61803 301.645 8.35803C303.975 8.09803 306.155 9.00803 308.265 12.448L307.885 15.028L307.365 18.588L306.945 21.148C303.945 23.838 301.675 24.148 299.435 23.148C297.195 22.148 289.895 18.878 289.435 14.768C289.38 14.5549 289.38 14.3312 289.435 14.118V14.148Z" fill="#A2C6DB"></path><path d="M303.837 13.5496C304.548 8.51938 298.095 3.4475 289.423 2.2212C280.752 0.994909 273.145 4.07858 272.434 9.10878C271.723 14.139 278.176 19.2109 286.847 20.4372C295.519 21.6635 303.125 18.5798 303.837 13.5496Z" fill="#C1E3F9"></path><path d="M25.9848 112.758C26.4196 114.736 26.2583 116.798 25.5214 118.684C24.7845 120.57 23.5049 122.195 21.8446 123.354C20.1842 124.513 18.2175 125.153 16.193 125.195C14.1686 125.236 12.1774 124.676 10.471 123.586C8.76459 122.496 7.41969 120.925 6.60626 119.07C5.79284 117.216 5.54741 115.162 5.901 113.169C6.2546 111.175 7.19134 109.331 8.59282 107.869C9.9943 106.408 11.7976 105.395 13.7748 104.958C16.4282 104.374 19.2046 104.868 21.4941 106.331C23.7836 107.793 25.3988 110.105 25.9848 112.758V112.758Z" fill="#2E5D7D"></path><path opacity="0.2" d="M19.7943 120.679C18.4804 120.968 17.1225 120.994 15.7982 120.758C14.4739 120.522 13.2091 120.027 12.0762 119.302C10.9432 118.576 9.96423 117.635 9.19522 116.531C8.42621 115.427 7.88222 114.183 7.59432 112.869C7.34118 111.723 7.29042 110.542 7.44432 109.379C6.59545 110.667 6.04845 112.13 5.84414 113.658C5.63984 115.187 5.78351 116.742 6.26445 118.208C6.74538 119.673 7.55114 121.011 8.62157 122.121C9.692 123.232 10.9994 124.086 12.4463 124.621C13.8931 125.155 15.442 125.355 16.9772 125.207C18.5124 125.059 19.9944 124.566 21.3124 123.765C22.6304 122.964 23.7504 121.876 24.5888 120.581C25.4273 119.287 25.9624 117.819 26.1543 116.289C24.693 118.531 22.4085 120.107 19.7943 120.679V120.679Z" fill="#C1E3F9"></path><path d="M116.614 237.211H98.7952V219.392C98.7952 218.227 98.3324 217.11 97.5087 216.286C96.6851 215.463 95.5679 215 94.4031 215H83.5969C83.0204 215 82.4496 215.114 81.9171 215.334C81.3845 215.555 80.9007 215.879 80.4934 216.287C80.086 216.695 79.7631 217.179 79.543 217.712C79.323 218.245 79.2101 218.816 79.2109 219.392V237.211H61.386C60.2222 237.213 59.1066 237.676 58.2842 238.5C57.4619 239.323 57 240.439 57 241.603V252.409C57.0016 253.572 57.4642 254.687 58.2864 255.509C59.1086 256.331 60.2232 256.794 61.386 256.795H79.2109V274.614C79.2101 275.191 79.323 275.761 79.543 276.294C79.7631 276.827 80.086 277.311 80.4934 277.719C80.9007 278.127 81.3845 278.451 81.9171 278.672C82.4496 278.892 83.0204 279.006 83.5969 279.006H94.4031C95.5679 279.006 96.6851 278.543 97.5087 277.72C98.3324 276.896 98.7952 275.779 98.7952 274.614V256.795H116.614C117.777 256.795 118.893 256.333 119.715 255.511C120.538 254.688 121 253.572 121 252.409V241.603C121.001 241.027 120.888 240.456 120.668 239.923C120.448 239.39 120.125 238.906 119.718 238.498C119.31 238.09 118.826 237.766 118.294 237.545C117.761 237.325 117.191 237.211 116.614 237.211V237.211Z" fill="#00C5BA"></path><path d="M103.947 29.1936L91.3667 14.2436L104.837 2.90358C106.493 1.51682 108.631 0.843351 110.783 1.0308C112.935 1.21826 114.925 2.25134 116.317 3.90358L118.407 6.40358C119.096 7.22173 119.616 8.16779 119.939 9.18751C120.262 10.2072 120.38 11.2806 120.287 12.3461C120.194 13.4116 119.892 14.4483 119.398 15.3968C118.903 16.3453 118.227 17.187 117.407 17.8736L103.947 29.1936Z" fill="#7393B7"></path><path d="M91.3668 14.2441L103.947 29.1942L90.4768 40.5042C89.6581 41.1918 88.7119 41.7114 87.6923 42.0333C86.6728 42.3552 85.5998 42.4731 84.5347 42.3802C83.4695 42.2873 82.4331 41.9855 81.4846 41.4921C80.5361 40.9986 79.6942 40.3231 79.0068 39.5042L76.9068 37.0042C76.2192 36.1854 75.6996 35.2393 75.3777 34.2197C75.0558 33.2001 74.9379 32.1271 75.0308 31.062C75.1236 29.9969 75.4254 28.9604 75.9189 28.012C76.4124 27.0635 77.0879 26.2215 77.9068 25.5341L91.3668 14.2441Z" fill="#C8CCD5"></path><path d="M38.5 64C47.6127 64 55 56.6127 55 47.5C55 38.3873 47.6127 31 38.5 31C29.3873 31 22 38.3873 22 47.5C22 56.6127 29.3873 64 38.5 64Z" fill="white"></path><path d="M27.02 59.3299C27.974 60.2729 29.0423 61.0926 30.2 61.7699C31.3628 62.4364 32.6018 62.9602 33.89 63.3299L49.98 35.6599C49.0194 34.7275 47.952 33.9119 46.8 33.2299C45.6404 32.5642 44.4048 32.0404 43.12 31.6699L27.02 59.3299Z" fill="#EFEFEF"></path><defs><linearGradient id="paint0_linear_2251_22778" x1="219.502" y1="269.12" x2="219.502" y2="36.0039" gradientUnits="userSpaceOnUse"><stop stop-color="#EDF2F6"></stop><stop offset="0.51" stop-color="#AAAAAE"></stop><stop offset="0.66" stop-color="#C6C6C9"></stop><stop offset="1" stop-color="#EDF2F6"></stop></linearGradient></defs></svg>